HIERARCHY
ROOT Hips
{
  OFFSET -0.00611153 96.2679 63.7508
  CHANNELS 6 Xposition Yposition Zposition Zrotation Xrotation Yrotation
  JOINT Chest
  {
    OFFSET 0 10.5691 -1.07959
    CHANNELS 6 Xposition Yposition Zposition Zrotation Xrotation Yrotation
    JOINT Chest2
    {
      OFFSET 0 11.6675 1.08235
      CHANNELS 6 Xposition Yposition Zposition Zrotation Xrotation Yrotation
      JOINT Chest3
      {
        OFFSET 0 10.5876 0
        CHANNELS 6 Xposition Yposition Zposition Zrotation Xrotation Yrotation
        JOINT Chest4
        {
          OFFSET 0 10.5876 0
          CHANNELS 6 Xposition Yposition Zposition Zrotation Xrotation Yrotation
          JOINT Neck
          {
            OFFSET 0 14.88 -9.18029e-005
            CHANNELS 6 Xposition Yposition Zposition Zrotation Xrotation Yrotation
            JOINT Head
            {
              OFFSET 0 9.61471 2.16553
              CHANNELS 6 Xposition Yposition Zposition Zrotation Xrotation Yrotation
              End Site
              {
                OFFSET 0 0 0
              }
            }
          }
          JOINT RightCollar
          {
            OFFSET -3.23953 8.30385 0
            CHANNELS 6 Xposition Yposition Zposition Zrotation Xrotation Yrotation
            JOINT RightShoulder
            {
              OFFSET -15.1725 0 0
              CHANNELS 6 Xposition Yposition Zposition Zrotation Xrotation Yrotation
              JOINT RightElbow
              {
                OFFSET -32.4113 0 0
                CHANNELS 6 Xposition Yposition Zposition Zrotation Xrotation Yrotation
                JOINT RightWrist
                {
                  OFFSET -26.4919 0 1.0813
                  CHANNELS 6 Xposition Yposition Zposition Zrotation Xrotation Yrotation
                  End Site
                  {
                    OFFSET 0 0 0
                  }
                }
              }
            }
          }
          JOINT LeftCollar
          {
            OFFSET 3.23953 8.30385 0
            CHANNELS 6 Xposition Yposition Zposition Zrotation Xrotation Yrotation
            JOINT LeftShoulder
            {
              OFFSET 15.1725 0 0
              CHANNELS 6 Xposition Yposition Zposition Zrotation Xrotation Yrotation
              JOINT LeftElbow
              {
                OFFSET 32.4113 0 0
                CHANNELS 6 Xposition Yposition Zposition Zrotation Xrotation Yrotation
                JOINT LeftWrist
                {
                  OFFSET 26.4919 0 1.08131
                  CHANNELS 6 Xposition Yposition Zposition Zrotation Xrotation Yrotation
                  End Site
                  {
                    OFFSET 0 0 0
                  }
                }
              }
            }
          }
        }
      }
    }
  }
  JOINT RightHip
  {
    OFFSET -8.63673 0.00547028 0
    CHANNELS 6 Xposition Yposition Zposition Zrotation Xrotation Yrotation
    JOINT RightKnee
    {
      OFFSET 0 -44.4932 -2.13963
      CHANNELS 6 Xposition Yposition Zposition Zrotation Xrotation Yrotation
      JOINT RightAnkle
      {
        OFFSET 0 -43.4407 -3.54051
        CHANNELS 6 Xposition Yposition Zposition Zrotation Xrotation Yrotation
        JOINT RightToe
        {
          OFFSET 0 -8.39269 19.1252
          CHANNELS 6 Xposition Yposition Zposition Zrotation Xrotation Yrotation
          End Site
          {
            OFFSET 0 0 0
          }
        }
      }
    }
  }
  JOINT LeftHip
  {
    OFFSET 8.63673 0.00547028 0
    CHANNELS 6 Xposition Yposition Zposition Zrotation Xrotation Yrotation
    JOINT LeftKnee
    {
      OFFSET 0 -44.4932 -2.13962
      CHANNELS 6 Xposition Yposition Zposition Zrotation Xrotation Yrotation
      JOINT LeftAnkle
      {
        OFFSET 0 -43.4408 -3.54051
        CHANNELS 6 Xposition Yposition Zposition Zrotation Xrotation Yrotation
        JOINT LeftToe
        {
          OFFSET 0 -8.3927 19.1252
          CHANNELS 6 Xposition Yposition Zposition Zrotation Xrotation Yrotation
          End Site
          {
            OFFSET 0 0 0
          }
        }
      }
    }
  }
}
MOTION
Frames:	4
Frame Time:	0.0333333
-79.1624 82.9015 66.5569 -18.0615 3.96396 -92.0991 0 10.5691 -1.07959 -0.280748 3.39396 0.798734 0 11.6675 1.08235 -0.610291 6.78351 1.61829 7.10543e-015 10.5876 1.42109e-014 -0.610293 6.78351 1.61828 7.10543e-015 10.5876 -2.84217e-014 -0.610294 6.78351 1.6183 3.75075e-006 14.88 -7.93369e-006 -9.59608 -3.19688 -21.8905 -7.10543e-015 9.61471 2.16553 24.9473 8.29822 -30.6251 -3.23953 8.30385 1.42109e-014 -7.95139e-016 -7.70291e-016 1.98785e-016 -15.1725 -4.76837e-006 7.10543e-015 58.7059 34.058 21.9242 -32.4113 1.67708e-006 4.55109e-006 -17.7831 -6.11928 66.599 -26.4919 7.20099e-007 1.0813 1.57089 0.206678 14.5672 3.23953 8.30385 0 -7.95139e-016 -7.70291e-016 1.98785e-016 15.1725 -4.76837e-006 -1.42109e-014 -71.1483 17.215 2.26982 32.4113 -2.04229e-006 -6.01831e-006 9.57648 -11.2988 -89.988 26.4919 3.88475e-006 1.08131 -6.82673 -0.0281643 2.18323 -8.63673 0.00547028 0 -19.6112 -19.4463 -28.7526 0.00179259 -44.4932 -2.13966 18.562 79.7355 -22.6471 -2.09253e-007 -43.4407 -3.54051 8.18011 9.15152 -7.1627 -1.13312e-007 -8.39269 19.1252 -8.94747 -24.9506 15.9728 8.63673 0.00547028 0 5.62569 -32.3817 -1.8396 3.38332e-007 -44.4932 -2.13962 -7.84174 45.408 -6.86566 2.71976e-007 -43.4408 -3.54051 -4.61176 4.27795 -0.566114 -8.95233e-007 -8.3927 19.1252 -5.03286 7.16483 5.29228 
-80.9405 82.1976 62.7758 -18.5105 5.86882 -93.4608 7.10543e-015 10.5691 -1.07959 -0.178448 3.58003 0.626771 -7.10543e-015 11.6675 1.08235 -0.397338 7.15792 1.26849 7.10543e-015 10.5876 0 -0.397339 7.15791 1.2685 0 10.5876 -1.42109e-014 -0.397337 7.15791 1.26848 3.75075e-006 14.8801 -7.93369e-006 -11.3957 -2.49248 -23.123 -1.42109e-014 9.61471 2.16553 27.9183 8.97336 -33.3404 -3.23953 8.30385 -7.10543e-015 1.72418e-033 -4.96962e-016 1.98785e-016 -15.1725 -4.76837e-006 0 61.0354 27.689 19.0425 -32.4113 1.67708e-006 4.55109e-006 -16.0677 0.21376 63.328 -26.4919 7.20099e-007 1.0813 -0.270151 -0.0401225 17.2063 3.23953 8.30385 -1.42109e-014 1.72418e-033 -4.96962e-016 1.98785e-016 15.1725 -4.76837e-006 -2.13163e-014 -64.2777 15.3747 -9.30948 32.4113 -2.04229e-006 -6.01831e-006 7.48121 -8.88994 -87.6263 26.4919 3.88475e-006 1.08131 -6.73487 -0.0178606 2.03685 -8.63673 0.00547028 0 -20.4256 -22.2939 -22.6883 0.00179189 -44.4932 -2.13966 14.0703 77.576 -18.4997 -2.09253e-007 -43.4407 -3.54051 2.74399 8.37682 -7.79376 -1.13312e-007 -8.39269 19.1252 -8.80919 -24.3431 7.77018 8.63673 0.00547028 -1.42109e-014 10.9982 -32.7097 0.446838 3.38332e-007 -44.4932 -2.13962 -8.80565 49.8152 -7.93224 2.71976e-007 -43.4408 -3.54051 -2.03525 3.1474 0.390453 -8.95233e-007 -8.3927 19.1252 -2.12072 2.193 3.85279 
-82.0765 82.0894 59.3214 -18.9155 5.70554 -95.5927 0 10.5691 -1.07959 -0.259921 3.68629 0.450541 0 11.6675 1.08235 -0.550665 7.37045 0.920728 -7.10543e-015 10.5876 0 -0.550666 7.37045 0.920721 7.10543e-015 10.5876 0 -0.550665 7.37045 0.92072 3.75075e-006 14.8799 -7.93369e-006 -13.036 -0.912313 -23.2281 -7.10543e-015 9.61471 2.16553 29.2186 9.1173 -34.5189 -3.23953 8.30385 0 -1.59028e-015 -1.54058e-015 -7.95139e-016 -15.1725 -4.76837e-006 1.42109e-014 59.183 28.7129 17.6247 -32.4113 1.67708e-006 4.55109e-006 -16.5587 -2.67325 65.4538 -26.4919 7.20099e-007 1.0813 0.694713 0.107091 15.7518 3.23953 8.30385 -7.10543e-015 -1.59028e-015 -1.54058e-015 -7.95139e-016 15.1725 -4.76837e-006 0 -60.6516 12.7938 -17.527 32.4113 -2.04229e-006 -6.01831e-006 6.71627 -8.3985 -88.6203 26.4919 3.88475e-006 1.08131 -7.0355 -0.0266155 2.12002 -8.63673 0.00547028 -1.42109e-014 -22.1945 -24.3395 -16.9387 0.00179109 -44.4932 -2.13966 5.47577 72.0905 -10.004 -2.09253e-007 -43.4407 -3.54051 0.829799 7.32962 -6.95391 -1.13312e-007 -8.39269 19.1252 -7.24906 -19.6853 4.49053 8.63673 0.00547028 -1.42109e-014 12.7485 -31.0256 1.34182 3.38332e-007 -44.4932 -2.13962 -6.56571 50.3285 -8.85623 2.71976e-007 -43.4408 -3.54051 -1.36644 2.7644 0.579539 -8.95233e-007 -8.3927 19.1252 -0.095371 -1.71486 3.46801 
-82.5722 82.564 55.6786 -18.4253 5.71786 -96.1195 0 10.5691 -1.07959 -0.240095 3.71227 0.0818905 0 11.6675 1.08235 -0.487054 7.42401 0.179945 0 10.5876 0 -0.487052 7.42401 0.179968 0 10.5876 1.42109e-014 -0.487051 7.42401 0.179937 3.75075e-006 14.88 -7.93369e-006 -14.3405 -0.786556 -22.9559 0 9.61471 2.16553 29.3153 10.1286 -34.8681 -3.23953 8.30385 7.10543e-015 7.95139e-016 -6.95746e-016 -0 -15.1725 -4.76837e-006 1.42109e-014 56.465 30.6878 17.5146 -32.4113 1.67708e-006 4.55109e-006 -19.9684 -6.30285 67.9662 -26.4919 7.20099e-007 1.0813 3.85956 0.618313 16.3095 3.23953 8.30385 7.10543e-015 7.95139e-016 -6.95746e-016 -0 15.1725 -4.76837e-006 -1.42109e-014 -58.4609 8.48346 -24.2233 32.4113 -2.04229e-006 -6.01831e-006 5.803 -8.03277 -90.9914 26.4919 3.88475e-006 1.08131 -8.67446 -0.0761776 2.74127 -8.63673 0.00547028 1.42109e-014 -22.5897 -24.6606 -13.4456 0.00179017 -44.4932 -2.13966 -1.56517 62.628 -3.09604 -2.09253e-007 -43.4407 -3.54051 2.50221 6.97224 -6.50931 -1.13312e-007 -8.39269 19.1252 -5.26546 -13.6365 4.73383 8.63673 0.00547028 0 13.8595 -29.5843 -0.997301 3.38332e-007 -44.4932 -2.13962 -6.21868 48.1685 -8.86891 2.71976e-007 -43.4408 -3.54051 -0.679238 3.45147 1.50223 -8.95233e-007 -8.3927 19.1252 0.552873 -3.63403 4.79011 
